<?xml version="1.0" ?>
<mxfile host="65bd71144e">
	<diagram id="RFndyrCF2-3MIdXtw8gX" name="Page-1">
		<mxGraphModel dx="422" dy="816" grid="1" gridSize="10" guides="1" tooltips="1" connect="1" arrows="1" fold="1" page="1" pageScale="1" pageWidth="850" pageHeight="1100" math="0" shadow="0">
			<root>
				<mxCell id="0"/>
				<mxCell id="1" parent="0"/>
				<mxCell id="5745905712" value="&lt;b&gt;Module&lt;/b&gt;" style="rounded=1;whiteSpace=wrap;html=1;fillColor=#CC99FF;strokeColor=#000000;" parent="1" vertex="1">
					<mxGeometry x="637.02" y="0.0" width="120" height="120" as="geometry"/>
				</mxCell>
				<mxCell id="5745905808" value="&lt;b&gt;FunctionDef&lt;/b&gt;&lt;br&gt;name: main&lt;br&gt;lineno: 2&lt;br&gt;col_offset: 0&lt;br&gt;end_lineno: 8&lt;br&gt;end_col_offset: 14" style="rounded=1;whiteSpace=wrap;html=1;fillColor=#66B2FF;strokeColor=#000000;" parent="1" vertex="1">
					<mxGeometry x="637.02" y="144.0" width="120" height="120" as="geometry"/>
				</mxCell>
				<mxCell id="5745905136" value="&lt;b&gt;arguments&lt;/b&gt;" style="rounded=1;whiteSpace=wrap;html=1;fillColor=#E6E6E6;strokeColor=#000000;" parent="1" vertex="1">
					<mxGeometry x="910.02" y="288.0" width="120" height="120" as="geometry"/>
				</mxCell>
				<mxCell id="5745906048" value="&lt;b&gt;FunctionDef&lt;/b&gt;&lt;br&gt;name: plus&lt;br&gt;lineno: 3&lt;br&gt;col_offset: 4&lt;br&gt;end_lineno: 4&lt;br&gt;end_col_offset: 20" style="rounded=1;whiteSpace=wrap;html=1;fillColor=#66B2FF;strokeColor=#000000;" parent="1" vertex="1">
					<mxGeometry x="778.02" y="288.0" width="120" height="120" as="geometry"/>
				</mxCell>
				<mxCell id="5745906144" value="&lt;b&gt;arguments&lt;/b&gt;" style="rounded=1;whiteSpace=wrap;html=1;fillColor=#E6E6E6;strokeColor=#000000;" parent="1" vertex="1">
					<mxGeometry x="1042.02" y="432.0" width="120" height="120" as="geometry"/>
				</mxCell>
				<mxCell id="5745905664" value="&lt;b&gt;arg&lt;/b&gt;&lt;br&gt;arg: a&lt;br&gt;lineno: 3&lt;br&gt;col_offset: 13&lt;br&gt;end_lineno: 3&lt;br&gt;end_col_offset: 14" style="rounded=1;whiteSpace=wrap;html=1;fillColor=#E6E6E6;strokeColor=#000000;" parent="1" vertex="1">
					<mxGeometry x="1174.019" y="576.0" width="120" height="120" as="geometry"/>
				</mxCell>
				<mxCell id="5745905040" value="&lt;b&gt;arg&lt;/b&gt;&lt;br&gt;arg: b&lt;br&gt;lineno: 3&lt;br&gt;col_offset: 16&lt;br&gt;end_lineno: 3&lt;br&gt;end_col_offset: 17" style="rounded=1;whiteSpace=wrap;html=1;fillColor=#E6E6E6;strokeColor=#000000;" parent="1" vertex="1">
					<mxGeometry x="1042.02" y="576.0" width="120" height="120" as="geometry"/>
				</mxCell>
				<mxCell id="5745905472" value="&lt;b&gt;Return&lt;/b&gt;&lt;br&gt;lineno: 4&lt;br&gt;col_offset: 8&lt;br&gt;end_lineno: 4&lt;br&gt;end_col_offset: 20" style="rounded=1;whiteSpace=wrap;html=1;fillColor=#D6FFC9;strokeColor=#000000;" parent="1" vertex="1">
					<mxGeometry x="849.02" y="432.0" width="120" height="120" as="geometry"/>
				</mxCell>
				<mxCell id="5745905760" value="&lt;b&gt;BinOp&lt;/b&gt;&lt;br&gt;lineno: 4&lt;br&gt;col_offset: 15&lt;br&gt;end_lineno: 4&lt;br&gt;end_col_offset: 20" style="rounded=1;whiteSpace=wrap;html=1;fillColor=#CCCCFF;strokeColor=#000000;" parent="1" vertex="1">
					<mxGeometry x="910.02" y="576.0" width="120" height="120" as="geometry"/>
				</mxCell>
				<mxCell id="5745904944" value="&lt;b&gt;Name&lt;/b&gt;&lt;br&gt;id: a&lt;br&gt;lineno: 4&lt;br&gt;col_offset: 15&lt;br&gt;end_lineno: 4&lt;br&gt;end_col_offset: 16" style="rounded=1;whiteSpace=wrap;html=1;fillColor=#CCE5FF;strokeColor=#000000;" parent="1" vertex="1">
					<mxGeometry x="1108.02" y="720.0" width="120" height="120" as="geometry"/>
				</mxCell>
				<mxCell id="4318839664" value="&lt;b&gt;Load&lt;/b&gt;" style="rounded=1;whiteSpace=wrap;html=1;fillColor=#E6E6E6;strokeColor=#000000;" parent="1" vertex="1">
					<mxGeometry x="306.02" y="864.0" width="120" height="120" as="geometry"/>
				</mxCell>
				<mxCell id="4318840240" value="&lt;b&gt;Add&lt;/b&gt;" style="rounded=1;whiteSpace=wrap;html=1;fillColor=#E6E6E6;strokeColor=#000000;" parent="1" vertex="1">
					<mxGeometry x="844.02" y="720.0" width="120" height="120" as="geometry"/>
				</mxCell>
				<mxCell id="5745906000" value="&lt;b&gt;Name&lt;/b&gt;&lt;br&gt;id: b&lt;br&gt;lineno: 4&lt;br&gt;col_offset: 19&lt;br&gt;end_lineno: 4&lt;br&gt;end_col_offset: 20" style="rounded=1;whiteSpace=wrap;html=1;fillColor=#CCE5FF;strokeColor=#000000;" parent="1" vertex="1">
					<mxGeometry x="976.02" y="720.0" width="120" height="120" as="geometry"/>
				</mxCell>
				<mxCell id="5745903072" value="&lt;b&gt;Assign&lt;/b&gt;&lt;br&gt;lineno: 6&lt;br&gt;col_offset: 4&lt;br&gt;end_lineno: 6&lt;br&gt;end_col_offset: 15" style="rounded=1;whiteSpace=wrap;html=1;fillColor=#D6FFC9;strokeColor=#000000;" parent="1" vertex="1">
					<mxGeometry x="637.02" y="288.0" width="120" height="120" as="geometry"/>
				</mxCell>
				<mxCell id="5745905904" value="&lt;b&gt;Tuple&lt;/b&gt;&lt;br&gt;lineno: 6&lt;br&gt;col_offset: 4&lt;br&gt;end_lineno: 6&lt;br&gt;end_col_offset: 8" style="rounded=1;whiteSpace=wrap;html=1;fillColor=#FFD9B3;strokeColor=#000000;" parent="1" vertex="1">
					<mxGeometry x="481.02" y="432.0" width="120" height="120" as="geometry"/>
				</mxCell>
				<mxCell id="5745905424" value="&lt;b&gt;Name&lt;/b&gt;&lt;br&gt;id: x&lt;br&gt;lineno: 6&lt;br&gt;col_offset: 4&lt;br&gt;end_lineno: 6&lt;br&gt;end_col_offset: 5" style="rounded=1;whiteSpace=wrap;html=1;fillColor=#CCE5FF;strokeColor=#000000;" parent="1" vertex="1">
					<mxGeometry x="438.02" y="576.0" width="120" height="120" as="geometry"/>
				</mxCell>
				<mxCell id="4318839760" value="&lt;b&gt;Store&lt;/b&gt;" style="rounded=1;whiteSpace=wrap;html=1;fillColor=#E6E6E6;strokeColor=#000000;" parent="1" vertex="1">
					<mxGeometry x="438.02" y="720.0" width="120" height="120" as="geometry"/>
				</mxCell>
				<mxCell id="5745905856" value="&lt;b&gt;Name&lt;/b&gt;&lt;br&gt;id: y&lt;br&gt;lineno: 6&lt;br&gt;col_offset: 7&lt;br&gt;end_lineno: 6&lt;br&gt;end_col_offset: 8" style="rounded=1;whiteSpace=wrap;html=1;fillColor=#CCE5FF;strokeColor=#000000;" parent="1" vertex="1">
					<mxGeometry x="306.02" y="576.0" width="120" height="120" as="geometry"/>
				</mxCell>
				<mxCell id="5745905376" value="&lt;b&gt;Tuple&lt;/b&gt;&lt;br&gt;lineno: 6&lt;br&gt;col_offset: 11&lt;br&gt;end_lineno: 6&lt;br&gt;end_col_offset: 15" style="rounded=1;whiteSpace=wrap;html=1;fillColor=#FFD9B3;strokeColor=#000000;" parent="1" vertex="1">
					<mxGeometry x="698.02" y="432.0" width="120" height="120" as="geometry"/>
				</mxCell>
				<mxCell id="5745906096" value="&lt;b&gt;Constant&lt;/b&gt;&lt;br&gt;value: 1&lt;br&gt;lineno: 6&lt;br&gt;col_offset: 11&lt;br&gt;end_lineno: 6&lt;br&gt;end_col_offset: 12" style="rounded=1;whiteSpace=wrap;html=1;fillColor=#FFFFFF;strokeColor=#000000;" parent="1" vertex="1">
					<mxGeometry x="740.02" y="576.0" width="120" height="120" as="geometry"/>
				</mxCell>
				<mxCell id="5745904608" value="&lt;b&gt;Constant&lt;/b&gt;&lt;br&gt;value: 2&lt;br&gt;lineno: 6&lt;br&gt;col_offset: 14&lt;br&gt;end_lineno: 6&lt;br&gt;end_col_offset: 15" style="rounded=1;whiteSpace=wrap;html=1;fillColor=#FFFFFF;strokeColor=#000000;" parent="1" vertex="1">
					<mxGeometry x="608.02" y="576.0" width="120" height="120" as="geometry"/>
				</mxCell>
				<mxCell id="5745903216" value="&lt;b&gt;Assign&lt;/b&gt;&lt;br&gt;lineno: 7&lt;br&gt;col_offset: 4&lt;br&gt;end_lineno: 7&lt;br&gt;end_col_offset: 20" style="rounded=1;whiteSpace=wrap;html=1;fillColor=#D6FFC9;strokeColor=#000000;" parent="1" vertex="1">
					<mxGeometry x="174.0" y="432.0" width="120" height="120" as="geometry"/>
				</mxCell>
				<mxCell id="5745903840" value="&lt;b&gt;Name&lt;/b&gt;&lt;br&gt;id: res&lt;br&gt;lineno: 7&lt;br&gt;col_offset: 4&lt;br&gt;end_lineno: 7&lt;br&gt;end_col_offset: 7" style="rounded=1;whiteSpace=wrap;html=1;fillColor=#CCE5FF;strokeColor=#000000;" parent="1" vertex="1">
					<mxGeometry x="174.0" y="576.0" width="120" height="120" as="geometry"/>
				</mxCell>
				<mxCell id="5745903504" value="&lt;b&gt;Call&lt;/b&gt;&lt;br&gt;lineno: 7&lt;br&gt;col_offset: 10&lt;br&gt;end_lineno: 7&lt;br&gt;end_col_offset: 20" style="rounded=1;whiteSpace=wrap;html=1;fillColor=#FFCCFF;strokeColor=#000000;" parent="1" vertex="1">
					<mxGeometry x="42.0" y="576.0" width="120" height="120" as="geometry"/>
				</mxCell>
				<mxCell id="5745903792" value="&lt;b&gt;Name&lt;/b&gt;&lt;br&gt;id: plus&lt;br&gt;lineno: 7&lt;br&gt;col_offset: 10&lt;br&gt;end_lineno: 7&lt;br&gt;end_col_offset: 14" style="rounded=1;whiteSpace=wrap;html=1;fillColor=#CCE5FF;strokeColor=#000000;" parent="1" vertex="1">
					<mxGeometry x="306.02" y="720.0" width="120" height="120" as="geometry"/>
				</mxCell>
				<mxCell id="5745902832" value="&lt;b&gt;Name&lt;/b&gt;&lt;br&gt;id: x&lt;br&gt;lineno: 7&lt;br&gt;col_offset: 15&lt;br&gt;end_lineno: 7&lt;br&gt;end_col_offset: 16" style="rounded=1;whiteSpace=wrap;html=1;fillColor=#CCE5FF;strokeColor=#000000;" parent="1" vertex="1">
					<mxGeometry x="174.0" y="720.0" width="120" height="120" as="geometry"/>
				</mxCell>
				<mxCell id="5745903408" value="&lt;b&gt;Name&lt;/b&gt;&lt;br&gt;id: y&lt;br&gt;lineno: 7&lt;br&gt;col_offset: 18&lt;br&gt;end_lineno: 7&lt;br&gt;end_col_offset: 19" style="rounded=1;whiteSpace=wrap;html=1;fillColor=#CCE5FF;strokeColor=#000000;" parent="1" vertex="1">
					<mxGeometry x="42.0" y="720.0" width="120" height="120" as="geometry"/>
				</mxCell>
				<mxCell id="5745903888" value="&lt;b&gt;Return&lt;/b&gt;&lt;br&gt;lineno: 8&lt;br&gt;col_offset: 4&lt;br&gt;end_lineno: 8&lt;br&gt;end_col_offset: 14" style="rounded=1;whiteSpace=wrap;html=1;fillColor=#D6FFC9;strokeColor=#000000;" parent="1" vertex="1">
					<mxGeometry x="62.0" y="288.0" width="120" height="120" as="geometry"/>
				</mxCell>
				<mxCell id="5745903984" value="&lt;b&gt;Name&lt;/b&gt;&lt;br&gt;id: res&lt;br&gt;lineno: 8&lt;br&gt;col_offset: 11&lt;br&gt;end_lineno: 8&lt;br&gt;end_col_offset: 14" style="rounded=1;whiteSpace=wrap;html=1;fillColor=#CCE5FF;strokeColor=#000000;" parent="1" vertex="1">
					<mxGeometry x="0.0" y="432.0" width="120" height="120" as="geometry"/>
				</mxCell>
				<mxCell id="5745905712_5745905808" value="['body', 0]" style="endArrow=classic;html=1;" parent="1" source="5745905712" target="5745905808" edge="1">
					<mxGeometry width="50" height="50" relative="1" as="geometry">
						<mxPoint x="400" y="440" as="sourcePoint"/>
						<mxPoint x="450" y="390" as="targetPoint"/>
					</mxGeometry>
				</mxCell>
				<mxCell id="5745905808_5745905136" value="['args']" style="endArrow=classic;html=1;" parent="1" source="5745905808" target="5745905136" edge="1">
					<mxGeometry width="50" height="50" relative="1" as="geometry">
						<mxPoint x="400" y="440" as="sourcePoint"/>
						<mxPoint x="450" y="390" as="targetPoint"/>
					</mxGeometry>
				</mxCell>
				<mxCell id="5745905808_5745906048" value="['body', 0]" style="endArrow=classic;html=1;" parent="1" source="5745905808" target="5745906048" edge="1">
					<mxGeometry width="50" height="50" relative="1" as="geometry">
						<mxPoint x="400" y="440" as="sourcePoint"/>
						<mxPoint x="450" y="390" as="targetPoint"/>
					</mxGeometry>
				</mxCell>
				<mxCell id="5745906048_5745906144" value="['args']" style="endArrow=classic;html=1;" parent="1" source="5745906048" target="5745906144" edge="1">
					<mxGeometry width="50" height="50" relative="1" as="geometry">
						<mxPoint x="400" y="440" as="sourcePoint"/>
						<mxPoint x="450" y="390" as="targetPoint"/>
					</mxGeometry>
				</mxCell>
				<mxCell id="5745906144_5745905664" value="['args', 0]" style="endArrow=classic;html=1;" parent="1" source="5745906144" target="5745905664" edge="1">
					<mxGeometry width="50" height="50" relative="1" as="geometry">
						<mxPoint x="400" y="440" as="sourcePoint"/>
						<mxPoint x="450" y="390" as="targetPoint"/>
					</mxGeometry>
				</mxCell>
				<mxCell id="5745906144_5745905040" value="['args', 1]" style="endArrow=classic;html=1;" parent="1" source="5745906144" target="5745905040" edge="1">
					<mxGeometry width="50" height="50" relative="1" as="geometry">
						<mxPoint x="400" y="440" as="sourcePoint"/>
						<mxPoint x="450" y="390" as="targetPoint"/>
					</mxGeometry>
				</mxCell>
				<mxCell id="5745906048_5745905472" value="['body', 0]" style="endArrow=classic;html=1;" parent="1" source="5745906048" target="5745905472" edge="1">
					<mxGeometry width="50" height="50" relative="1" as="geometry">
						<mxPoint x="400" y="440" as="sourcePoint"/>
						<mxPoint x="450" y="390" as="targetPoint"/>
					</mxGeometry>
				</mxCell>
				<mxCell id="5745905472_5745905760" value="['value']" style="endArrow=classic;html=1;" parent="1" source="5745905472" target="5745905760" edge="1">
					<mxGeometry width="50" height="50" relative="1" as="geometry">
						<mxPoint x="400" y="440" as="sourcePoint"/>
						<mxPoint x="450" y="390" as="targetPoint"/>
					</mxGeometry>
				</mxCell>
				<mxCell id="5745905760_5745904944" value="['left']" style="endArrow=classic;html=1;" parent="1" source="5745905760" target="5745904944" edge="1">
					<mxGeometry width="50" height="50" relative="1" as="geometry">
						<mxPoint x="400" y="440" as="sourcePoint"/>
						<mxPoint x="450" y="390" as="targetPoint"/>
					</mxGeometry>
				</mxCell>
				<mxCell id="5745904944_4318839664" value="['ctx']" style="endArrow=classic;html=1;" parent="1" source="5745904944" target="4318839664" edge="1">
					<mxGeometry width="50" height="50" relative="1" as="geometry">
						<mxPoint x="400" y="440" as="sourcePoint"/>
						<mxPoint x="450" y="390" as="targetPoint"/>
					</mxGeometry>
				</mxCell>
				<mxCell id="5745905760_4318840240" value="['op']" style="endArrow=classic;html=1;" parent="1" source="5745905760" target="4318840240" edge="1">
					<mxGeometry width="50" height="50" relative="1" as="geometry">
						<mxPoint x="400" y="440" as="sourcePoint"/>
						<mxPoint x="450" y="390" as="targetPoint"/>
					</mxGeometry>
				</mxCell>
				<mxCell id="5745905760_5745906000" value="['right']" style="endArrow=classic;html=1;" parent="1" source="5745905760" target="5745906000" edge="1">
					<mxGeometry width="50" height="50" relative="1" as="geometry">
						<mxPoint x="400" y="440" as="sourcePoint"/>
						<mxPoint x="450" y="390" as="targetPoint"/>
					</mxGeometry>
				</mxCell>
				<mxCell id="5745906000_4318839664" value="['ctx']" style="endArrow=classic;html=1;" parent="1" source="5745906000" target="4318839664" edge="1">
					<mxGeometry width="50" height="50" relative="1" as="geometry">
						<mxPoint x="400" y="440" as="sourcePoint"/>
						<mxPoint x="450" y="390" as="targetPoint"/>
					</mxGeometry>
				</mxCell>
				<mxCell id="5745905808_5745903072" value="['body', 1]" style="endArrow=classic;html=1;" parent="1" source="5745905808" target="5745903072" edge="1">
					<mxGeometry width="50" height="50" relative="1" as="geometry">
						<mxPoint x="400" y="440" as="sourcePoint"/>
						<mxPoint x="450" y="390" as="targetPoint"/>
					</mxGeometry>
				</mxCell>
				<mxCell id="5745903072_5745905904" value="['targets', 0]" style="endArrow=classic;html=1;" parent="1" source="5745903072" target="5745905904" edge="1">
					<mxGeometry width="50" height="50" relative="1" as="geometry">
						<mxPoint x="400" y="440" as="sourcePoint"/>
						<mxPoint x="450" y="390" as="targetPoint"/>
					</mxGeometry>
				</mxCell>
				<mxCell id="5745905904_5745905424" value="['elts', 0]" style="endArrow=classic;html=1;" parent="1" source="5745905904" target="5745905424" edge="1">
					<mxGeometry width="50" height="50" relative="1" as="geometry">
						<mxPoint x="400" y="440" as="sourcePoint"/>
						<mxPoint x="450" y="390" as="targetPoint"/>
					</mxGeometry>
				</mxCell>
				<mxCell id="5745905424_4318839760" value="['ctx']" style="endArrow=classic;html=1;" parent="1" source="5745905424" target="4318839760" edge="1">
					<mxGeometry width="50" height="50" relative="1" as="geometry">
						<mxPoint x="400" y="440" as="sourcePoint"/>
						<mxPoint x="450" y="390" as="targetPoint"/>
					</mxGeometry>
				</mxCell>
				<mxCell id="5745905904_5745905856" value="['elts', 1]" style="endArrow=classic;html=1;" parent="1" source="5745905904" target="5745905856" edge="1">
					<mxGeometry width="50" height="50" relative="1" as="geometry">
						<mxPoint x="400" y="440" as="sourcePoint"/>
						<mxPoint x="450" y="390" as="targetPoint"/>
					</mxGeometry>
				</mxCell>
				<mxCell id="5745905856_4318839760" value="['ctx']" style="endArrow=classic;html=1;" parent="1" source="5745905856" target="4318839760" edge="1">
					<mxGeometry width="50" height="50" relative="1" as="geometry">
						<mxPoint x="400" y="440" as="sourcePoint"/>
						<mxPoint x="450" y="390" as="targetPoint"/>
					</mxGeometry>
				</mxCell>
				<mxCell id="5745905904_4318839760" value="['ctx']" style="endArrow=classic;html=1;" parent="1" source="5745905904" target="4318839760" edge="1">
					<mxGeometry width="50" height="50" relative="1" as="geometry">
						<mxPoint x="400" y="440" as="sourcePoint"/>
						<mxPoint x="450" y="390" as="targetPoint"/>
					</mxGeometry>
				</mxCell>
				<mxCell id="5745903072_5745905376" value="['value']" style="endArrow=classic;html=1;" parent="1" source="5745903072" target="5745905376" edge="1">
					<mxGeometry width="50" height="50" relative="1" as="geometry">
						<mxPoint x="400" y="440" as="sourcePoint"/>
						<mxPoint x="450" y="390" as="targetPoint"/>
					</mxGeometry>
				</mxCell>
				<mxCell id="5745905376_5745906096" value="['elts', 0]" style="endArrow=classic;html=1;" parent="1" source="5745905376" target="5745906096" edge="1">
					<mxGeometry width="50" height="50" relative="1" as="geometry">
						<mxPoint x="400" y="440" as="sourcePoint"/>
						<mxPoint x="450" y="390" as="targetPoint"/>
					</mxGeometry>
				</mxCell>
				<mxCell id="5745905376_5745904608" value="['elts', 1]" style="endArrow=classic;html=1;" parent="1" source="5745905376" target="5745904608" edge="1">
					<mxGeometry width="50" height="50" relative="1" as="geometry">
						<mxPoint x="400" y="440" as="sourcePoint"/>
						<mxPoint x="450" y="390" as="targetPoint"/>
					</mxGeometry>
				</mxCell>
				<mxCell id="5745905376_4318839664" value="['ctx']" style="endArrow=classic;html=1;" parent="1" source="5745905376" target="4318839664" edge="1">
					<mxGeometry width="50" height="50" relative="1" as="geometry">
						<mxPoint x="400" y="440" as="sourcePoint"/>
						<mxPoint x="450" y="390" as="targetPoint"/>
					</mxGeometry>
				</mxCell>
				<mxCell id="5745905808_5745903216" value="['body', 2]" style="endArrow=classic;html=1;" parent="1" source="5745905808" target="5745903216" edge="1">
					<mxGeometry width="50" height="50" relative="1" as="geometry">
						<mxPoint x="400" y="440" as="sourcePoint"/>
						<mxPoint x="450" y="390" as="targetPoint"/>
					</mxGeometry>
				</mxCell>
				<mxCell id="5745903216_5745903840" value="['targets', 0]" style="endArrow=classic;html=1;" parent="1" source="5745903216" target="5745903840" edge="1">
					<mxGeometry width="50" height="50" relative="1" as="geometry">
						<mxPoint x="400" y="440" as="sourcePoint"/>
						<mxPoint x="450" y="390" as="targetPoint"/>
					</mxGeometry>
				</mxCell>
				<mxCell id="5745903840_4318839760" value="['ctx']" style="endArrow=classic;html=1;" parent="1" source="5745903840" target="4318839760" edge="1">
					<mxGeometry width="50" height="50" relative="1" as="geometry">
						<mxPoint x="400" y="440" as="sourcePoint"/>
						<mxPoint x="450" y="390" as="targetPoint"/>
					</mxGeometry>
				</mxCell>
				<mxCell id="5745903216_5745903504" value="['value']" style="endArrow=classic;html=1;" parent="1" source="5745903216" target="5745903504" edge="1">
					<mxGeometry width="50" height="50" relative="1" as="geometry">
						<mxPoint x="400" y="440" as="sourcePoint"/>
						<mxPoint x="450" y="390" as="targetPoint"/>
					</mxGeometry>
				</mxCell>
				<mxCell id="5745903504_5745903792" value="['func']" style="endArrow=classic;html=1;" parent="1" source="5745903504" target="5745903792" edge="1">
					<mxGeometry width="50" height="50" relative="1" as="geometry">
						<mxPoint x="400" y="440" as="sourcePoint"/>
						<mxPoint x="450" y="390" as="targetPoint"/>
					</mxGeometry>
				</mxCell>
				<mxCell id="5745903792_4318839664" value="['ctx']" style="endArrow=classic;html=1;" parent="1" source="5745903792" target="4318839664" edge="1">
					<mxGeometry width="50" height="50" relative="1" as="geometry">
						<mxPoint x="400" y="440" as="sourcePoint"/>
						<mxPoint x="450" y="390" as="targetPoint"/>
					</mxGeometry>
				</mxCell>
				<mxCell id="5745903504_5745902832" value="['args', 0]" style="endArrow=classic;html=1;" parent="1" source="5745903504" target="5745902832" edge="1">
					<mxGeometry width="50" height="50" relative="1" as="geometry">
						<mxPoint x="400" y="440" as="sourcePoint"/>
						<mxPoint x="450" y="390" as="targetPoint"/>
					</mxGeometry>
				</mxCell>
				<mxCell id="5745902832_4318839664" value="['ctx']" style="endArrow=classic;html=1;" parent="1" source="5745902832" target="4318839664" edge="1">
					<mxGeometry width="50" height="50" relative="1" as="geometry">
						<mxPoint x="400" y="440" as="sourcePoint"/>
						<mxPoint x="450" y="390" as="targetPoint"/>
					</mxGeometry>
				</mxCell>
				<mxCell id="5745903504_5745903408" value="['args', 1]" style="endArrow=classic;html=1;" parent="1" source="5745903504" target="5745903408" edge="1">
					<mxGeometry width="50" height="50" relative="1" as="geometry">
						<mxPoint x="400" y="440" as="sourcePoint"/>
						<mxPoint x="450" y="390" as="targetPoint"/>
					</mxGeometry>
				</mxCell>
				<mxCell id="5745903408_4318839664" value="['ctx']" style="endArrow=classic;html=1;" parent="1" source="5745903408" target="4318839664" edge="1">
					<mxGeometry width="50" height="50" relative="1" as="geometry">
						<mxPoint x="400" y="440" as="sourcePoint"/>
						<mxPoint x="450" y="390" as="targetPoint"/>
					</mxGeometry>
				</mxCell>
				<mxCell id="5745905808_5745903888" value="['body', 3]" style="endArrow=classic;html=1;" parent="1" source="5745905808" target="5745903888" edge="1">
					<mxGeometry width="50" height="50" relative="1" as="geometry">
						<mxPoint x="400" y="440" as="sourcePoint"/>
						<mxPoint x="450" y="390" as="targetPoint"/>
					</mxGeometry>
				</mxCell>
				<mxCell id="5745903888_5745903984" value="['value']" style="endArrow=classic;html=1;" parent="1" source="5745903888" target="5745903984" edge="1">
					<mxGeometry width="50" height="50" relative="1" as="geometry">
						<mxPoint x="400" y="440" as="sourcePoint"/>
						<mxPoint x="450" y="390" as="targetPoint"/>
					</mxGeometry>
				</mxCell>
				<mxCell id="5745903984_4318839664" value="['ctx']" style="endArrow=classic;html=1;" parent="1" source="5745903984" target="4318839664" edge="1">
					<mxGeometry width="50" height="50" relative="1" as="geometry">
						<mxPoint x="400" y="440" as="sourcePoint"/>
						<mxPoint x="450" y="390" as="targetPoint"/>
					</mxGeometry>
				</mxCell>
			</root>
		</mxGraphModel>
	</diagram>
</mxfile>
